<?xml version="1.0" standalone="no" ?>
<!DOCTYPE svg PUBLIC "-//W3C//DTD SVG 1.1//EN" "http://www.w3.org/Graphics/SVG/1.1/DTD/svg11.dtd">
<svg xmlns="http://www.w3.org/2000/svg" version="1.1" x="-24.097497px" y="-24.097497px" width="48.194995px" height="48.194995px">
<polyline style="fill:none;stroke:black;stroke-width:1" points="38.939596,23.876085 41.714774,23.834686 41.717854,23.834678 41.727095,23.834809 41.742490,23.835309 41.764026,23.836408 41.791684,23.838335 41.825439,23.841321 41.865258,23.845593 41.911103,23.851379 41.962929,23.858905 42.020685,23.868397 42.084313,23.880080 42.153750,23.894175 42.228926,23.910903 42.309764,23.930484 42.396182,23.953135 42.488090,23.979070 42.585395,24.008502 42.687996,24.041643 42.795786,24.078698 42.908652,24.119873 43.026477,24.165371 43.149135,24.215390 43.276497,24.270126 43.408427,24.329772 43.544785,24.394516 43.685424,24.464545 43.830192,24.540040 43.978932,24.621179 44.131482,24.708136 44.287673,24.801080 44.447335,24.900178 44.610288,25.005590 44.776352,25.117473 44.945340,25.235979 45.117059,25.361255 45.291315,25.493444 45.467907,25.632682 45.646630,25.779102 45.827276,25.932832 46.004313,26.089290 45.796848,27.704991 45.586026,27.811646 45.372401,27.914748 45.162483,28.011265 44.956442,28.101371 44.754442,28.185246 44.556643,28.263074 44.363198,28.335041 44.174254,28.401339 43.989955,28.462162 43.810437,28.517707 43.635830,28.568175 43.466260,28.613770 43.301846,28.654698 43.142701,28.691169 42.988932,28.723394 42.840640,28.751588 42.697920,28.775967 42.560861,28.796750 42.429545,28.814157 42.304048,28.828411 42.184441,28.839735 42.070786,28.848356 41.963141,28.854499 41.861557,28.858393 41.766077,28.860266 41.676740,28.860349 41.593578,28.858872 41.516615,28.856065 41.445869,28.852159 41.381353,28.847387 41.323073,28.841980 41.271026,28.836168 41.225207,28.830184 41.185600,28.824257 41.152187,28.818618 41.124939,28.813495 41.103824,28.809117 41.088802,28.805711 41.079828,28.803503 41.076849,28.802718 38.402161,28.061524 37.061838,31.326798 39.485912,32.678534 39.488584,32.680068 39.496521,32.684802 39.509603,32.692932 39.527705,32.704652 39.550693,32.720150 39.578433,32.739613 39.610781,32.763222 39.647591,32.791155 39.688711,32.823586 39.733983,32.860685 39.783246,32.902616 39.836332,32.949541 39.893072,33.001616 39.953289,33.058993 40.016804,33.121818 40.083432,33.190233 40.152984,33.264375 40.225269,33.344375 40.300090,33.430361 40.377247,33.522453 40.456537,33.620767 40.537753,33.725414 40.620684,33.836498 40.705116,33.954118 40.790833,34.078367 40.877616,34.209333 40.965241,34.347098 41.053484,34.491736 41.142118,34.643318 41.230911,34.801906 41.319633,34.967558 41.408049,35.140324 41.495923,35.320250 41.583018,35.507373 41.669093,35.701725 41.753908,35.903331 41.837222,36.112211 41.918791,36.328376 41.998371,36.551833 42.073460,36.775848 41.085939,38.071354 40.850035,38.058308 40.613478,38.040785 40.383426,38.019412 40.159936,37.994426 39.943062,37.966064 39.732849,37.934565 39.529337,37.900168 39.332558,37.863112 39.142539,37.823637 38.959299,37.781981 38.782851,37.738385 38.613202,37.693086 38.450351,37.646324 38.294292,37.598336 38.145011,37.549359 38.002490,37.499630 37.866701,37.449383 37.737613,37.398852 37.615187,37.348269 37.499376,37.297864 37.390131,37.247868 37.287393,37.198506 37.191098,37.150004 37.101176,37.102584 37.017552,37.056466 36.940143,37.011870 36.868861,36.969009 36.803612,36.928096 36.744297,36.889341 36.690811,36.852951 36.643042,36.819127 36.600874,36.788071 36.564186,36.759979 36.532849,36.735043 36.506731,36.713452 36.485695,36.695392 36.469598,36.681043 36.458292,36.670583 36.451624,36.664184 36.449437,36.662014 34.503686,34.682777 31.710295,36.840426 33.133737,39.223100 33.135284,39.225765 33.139791,39.233833 33.147055,39.247415 33.156872,39.266615 33.169031,39.291532 33.183323,39.322257 33.199533,39.358877 33.217445,39.401473 33.236840,39.450119 33.257497,39.504883 33.279194,39.565828 33.301706,39.633010 33.324807,39.706478 33.348268,39.786276 33.371861,39.872441 33.395355,39.965004 33.418518,40.063989 33.441118,40.169414 33.462922,40.281291 33.483697,40.399623 33.503207,40.524411 33.521218,40.655646 33.537496,40.793312 33.551807,40.937391 33.563915,41.087852 33.573588,41.244664 33.580592,41.407784 33.584693,41.577166 33.585661,41.752756 33.583264,41.934494 33.577274,42.122314 33.567461,42.316142 33.553600,42.515899 33.535464,42.721499 33.512832,42.932851 33.485481,43.149855 33.453193,43.372407 33.415751,43.600396 33.372941,43.833705 33.325962,44.065252 31.822991,44.693433 31.625215,44.564183 31.429112,44.430730 31.240568,44.297194 31.059513,44.163810 30.885875,44.030811 30.719575,43.898426 30.560527,43.766881 30.408639,43.636400 30.263816,43.507204 30.125953,43.379509 29.994943,43.253529 29.870672,43.129475 29.753020,43.007552 29.641863,42.887964 29.537070,42.770908 29.438508,42.656581 29.346035,42.545171 29.259507,42.436866 29.178774,42.331846 29.103681,42.230290 29.034070,42.132369 28.969777,42.038251 28.910635,41.948100 28.856470,41.862072 28.807108,41.780321 28.762368,41.702994 28.722067,41.630235 28.686016,41.562179 28.654025,41.498959 28.625900,41.440701 28.601443,41.387525 28.580452,41.339545 28.562725,41.296872 28.548055,41.259609 28.536232,41.227852 28.527044,41.201693 28.520278,41.181218 28.515717,41.166506 28.513142,41.157630 28.512333,41.154658 27.816882,38.467713 24.318909,38.939596 24.360309,41.714774 24.360316,41.717854 24.360185,41.727095 24.359686,41.742490 24.358587,41.764026 24.356659,41.791684 24.353674,41.825439 24.349402,41.865258 24.343616,41.911103 24.336090,41.962929 24.326597,42.020685 24.314915,42.084313 24.300820,42.153750 24.284091,42.228926 24.264510,42.309764 24.241860,42.396182 24.215925,42.488090 24.186492,42.585395 24.153352,42.687996 24.116297,42.795786 24.075121,42.908652 24.029624,43.026477 23.979605,43.149135 23.924869,43.276497 23.865223,43.408427 23.800478,43.544785 23.730450,43.685424 23.654955,43.830192 23.573816,43.978932 23.486859,44.131482 23.393914,44.287673 23.294816,44.447335 23.189404,44.610288 23.077521,44.776352 22.959015,44.945340 22.833739,45.117059 22.701551,45.291315 22.562313,45.467907 22.415892,45.646630 22.262163,45.827276 22.105705,46.004313 20.490004,45.796848 20.383349,45.586026 20.280246,45.372401 20.183730,45.162483 20.093623,44.956442 20.009748,44.754442 19.931921,44.556643 19.859953,44.363198 19.793655,44.174254 19.732832,43.989955 19.677287,43.810437 19.626819,43.635830 19.581224,43.466260 19.540296,43.301846 19.503825,43.142701 19.471600,42.988932 19.443406,42.840640 19.419027,42.697920 19.398244,42.560861 19.380837,42.429545 19.366584,42.304048 19.355259,42.184441 19.346639,42.070786 19.340495,41.963141 19.336602,41.861557 19.334728,41.766077 19.334645,41.676740 19.336123,41.593578 19.338930,41.516615 19.342835,41.445869 19.347607,41.381353 19.353015,41.323073 19.358826,41.271026 19.364811,41.225207 19.370737,41.185600 19.376377,41.152187 19.381499,41.124939 19.385877,41.103824 19.389283,41.088802 19.391491,41.079828 19.392277,41.076849 20.133471,38.402161 16.868196,37.061838 15.516460,39.485912 15.514927,39.488584 15.510193,39.496521 15.502063,39.509603 15.490343,39.527705 15.474845,39.550693 15.455382,39.578433 15.431773,39.610781 15.403840,39.647591 15.371409,39.688711 15.334310,39.733983 15.292378,39.783246 15.245453,39.836332 15.193378,39.893072 15.136001,39.953289 15.073177,40.016804 15.004762,40.083432 14.930620,40.152984 14.850619,40.225269 14.764634,40.300090 14.672542,40.377247 14.574227,40.456537 14.469581,40.537753 14.358497,40.620684 14.240877,40.705116 14.116627,40.790833 13.985661,40.877616 13.847896,40.965241 13.703258,41.053484 13.551676,41.142118 13.393088,41.230911 13.227436,41.319633 13.054670,41.408049 12.874745,41.495923 12.687622,41.583018 12.493270,41.669093 12.291663,41.753908 12.082784,41.837222 11.866618,41.918791 11.643161,41.998371 11.419146,42.073460 10.123641,41.085939 10.136686,40.850035 10.154209,40.613478 10.175582,40.383426 10.200569,40.159936 10.228930,39.943062 10.260429,39.732849 10.294826,39.529337 10.331882,39.332558 10.371358,39.142539 10.413013,38.959299 10.456610,38.782851 10.501909,38.613202 10.548671,38.450351 10.596659,38.294292 10.645635,38.145011 10.695365,38.002490 10.745612,37.866701 10.796143,37.737613 10.846726,37.615187 10.897130,37.499376 10.947127,37.390131 10.996489,37.287393 11.044991,37.191098 11.092411,37.101176 11.138528,37.017552 11.183125,36.940143 11.225986,36.868861 11.266898,36.803612 11.305653,36.744297 11.342044,36.690811 11.375867,36.643042 11.406923,36.600874 11.435016,36.564186 11.459952,36.532849 11.481542,36.506731 11.499603,36.485695 11.513951,36.469598 11.524412,36.458292 11.530811,36.451624 11.532981,36.449437 13.512218,34.503686 11.354569,31.710295 8.971894,33.133737 8.969230,33.135284 8.961162,33.139791 8.947580,33.147055 8.928379,33.156872 8.903463,33.169031 8.872738,33.183323 8.836118,33.199533 8.793522,33.217445 8.744876,33.236840 8.690112,33.257497 8.629166,33.279194 8.561985,33.301706 8.488516,33.324807 8.408718,33.348268 8.322553,33.371861 8.229990,33.395355 8.131005,33.418518 8.025580,33.441118 7.913704,33.462922 7.795371,33.483697 7.670584,33.503207 7.539349,33.521218 7.401682,33.537496 7.257604,33.551807 7.107142,33.563915 6.950331,33.573588 6.787211,33.580592 6.617829,33.584693 6.442238,33.585661 6.260500,33.583264 6.072681,33.577274 5.878853,33.567461 5.679095,33.553600 5.473495,33.535464 5.262144,33.512832 5.045140,33.485481 4.822588,33.453193 4.594598,33.415751 4.361289,33.372941 4.129742,33.325962 3.501562,31.822991 3.630811,31.625215 3.764265,31.429112 3.897801,31.240568 4.031185,31.059513 4.164184,30.885875 4.296569,30.719575 4.428114,30.560527 4.558595,30.408639 4.687791,30.263816 4.815486,30.125953 4.941466,29.994943 5.065520,29.870672 5.187443,29.753020 5.307031,29.641863 5.424086,29.537070 5.538414,29.438508 5.649823,29.346035 5.758129,29.259507 5.863148,29.178774 5.964705,29.103681 6.062626,29.034070 6.156743,28.969777 6.246895,28.910635 6.332923,28.856470 6.414674,28.807108 6.492000,28.762368 6.564760,28.722067 6.632815,28.686016 6.696035,28.654025 6.754294,28.625900 6.807470,28.601443 6.855449,28.580452 6.898122,28.562725 6.935386,28.548055 6.967143,28.536232 6.993301,28.527044 7.013776,28.520278 7.028488,28.515717 7.037364,28.513142 7.040337,28.512333 9.727282,27.816882 9.255399,24.318909 6.480221,24.360309 6.477140,24.360316 6.467899,24.360185 6.452505,24.359686 6.430969,24.358587 6.403311,24.356659 6.369556,24.353674 6.329737,24.349402 6.283892,24.343616 6.232066,24.336090 6.174310,24.326597 6.110681,24.314915 6.041244,24.300820 5.966068,24.284091 5.885231,24.264510 5.798813,24.241860 5.706904,24.215925 5.609599,24.186492 5.506998,24.153352 5.399209,24.116297 5.286342,24.075121 5.168518,24.029624 5.045860,23.979605 4.918498,23.924869 4.786567,23.865223 4.650209,23.800478 4.509570,23.730450 4.364802,23.654955 4.216062,23.573816 4.063513,23.486859 3.907321,23.393914 3.747660,23.294816 3.584706,23.189404 3.418642,23.077521 3.249655,22.959015 3.077935,22.833739 2.903680,22.701551 2.727088,22.562313 2.548365,22.415892 2.367718,22.262163 2.190682,22.105705 2.398147,20.490004 2.608969,20.383349 2.822594,20.280246 3.032512,20.183730 3.238553,20.093623 3.440552,20.009748 3.638351,19.931921 3.831797,19.859953 4.020740,19.793655 4.205039,19.732832 4.384558,19.677287 4.559164,19.626819 4.728734,19.581224 4.893148,19.540296 5.052293,19.503825 5.206062,19.471600 5.354354,19.443406 5.497074,19.419027 5.634133,19.398244 5.765449,19.380837 5.890946,19.366584 6.010554,19.355259 6.124208,19.346639 6.231853,19.340495 6.333438,19.336602 6.428917,19.334728 6.518254,19.334645 6.601416,19.336123 6.678380,19.338930 6.749125,19.342835 6.813641,19.347607 6.871922,19.353015 6.923968,19.358826 6.969788,19.364811 7.009394,19.370737 7.042808,19.376377 7.070056,19.381499 7.091171,19.385877 7.106192,19.389283 7.115166,19.391491 7.118145,19.392277 9.792833,20.133471 11.133157,16.868196 8.709083,15.516460 8.706411,15.514927 8.698474,15.510193 8.685391,15.502063 8.667290,15.490343 8.644301,15.474845 8.616562,15.455382 8.584213,15.431773 8.547403,15.403840 8.506284,15.371409 8.461012,15.334310 8.411749,15.292378 8.358662,15.245453 8.301922,15.193378 8.241705,15.136001 8.178191,15.073177 8.111563,15.004762 8.042011,14.930620 7.969726,14.850619 7.894904,14.764634 7.817747,14.672542 7.738457,14.574227 7.657241,14.469581 7.574311,14.358497 7.489878,14.240877 7.404161,14.116627 7.317379,13.985661 7.229753,13.847896 7.141510,13.703258 7.052877,13.551676 6.964083,13.393088 6.875361,13.227436 6.786945,13.054670 6.699071,12.874745 6.611977,12.687622 6.525902,12.493270 6.441086,12.291663 6.357772,12.082784 6.276203,11.866618 6.196624,11.643161 6.121535,11.419146 7.109056,10.123641 7.344960,10.136686 7.581516,10.154209 7.811569,10.175582 8.035058,10.200569 8.251933,10.228930 8.462146,10.260429 8.665658,10.294826 8.862437,10.331882 9.052456,10.371358 9.235696,10.413013 9.412144,10.456610 9.581793,10.501909 9.744644,10.548671 9.900703,10.596659 10.049983,10.645635 10.192505,10.695365 10.328293,10.745612 10.457381,10.796143 10.579808,10.846726 10.695618,10.897130 10.804864,10.947127 10.907602,10.996489 11.003897,11.044991 11.093818,11.092411 11.177443,11.138528 11.254852,11.183125 11.326134,11.225986 11.391383,11.266898 11.450697,11.305653 11.504184,11.342044 11.551953,11.375867 11.594120,11.406923 11.630809,11.435016 11.662146,11.459952 11.688263,11.481542 11.709299,11.499603 11.725396,11.513951 11.736703,11.524412 11.743370,11.530811 11.745557,11.532981 13.691308,13.512218 16.484700,11.354569 15.061258,8.971894 15.059711,8.969230 15.055204,8.961162 15.047939,8.947580 15.038123,8.928379 15.025963,8.903463 15.011671,8.872738 14.995461,8.836118 14.977550,8.793522 14.958155,8.744876 14.937497,8.690112 14.915800,8.629166 14.893288,8.561985 14.870188,8.488516 14.846726,8.408718 14.823134,8.322553 14.799640,8.229990 14.776477,8.131005 14.753876,8.025580 14.732072,7.913704 14.711298,7.795371 14.691788,7.670584 14.673776,7.539349 14.657498,7.401682 14.643188,7.257604 14.631079,7.107142 14.621406,6.950331 14.614403,6.787211 14.610301,6.617829 14.609333,6.442238 14.611730,6.260500 14.617721,6.072681 14.627533,5.878853 14.641395,5.679095 14.659530,5.473495 14.682163,5.262144 14.709514,5.045140 14.741802,4.822588 14.779244,4.594598 14.822054,4.361289 14.869032,4.129742 16.372003,3.501562 16.569780,3.630811 16.765882,3.764265 16.954427,3.897801 17.135481,4.031185 17.309119,4.164184 17.475420,4.296569 17.634468,4.428114 17.786355,4.558595 17.931179,4.687791 18.069042,4.815486 18.200052,4.941466 18.324323,5.065520 18.441975,5.187443 18.553132,5.307031 18.657924,5.424086 18.756487,5.538414 18.848959,5.649823 18.935488,5.758129 19.016221,5.863148 19.091313,5.964705 19.160924,6.062626 19.225217,6.156743 19.284360,6.246895 19.338524,6.332923 19.387886,6.414674 19.432626,6.492000 19.472928,6.564760 19.508979,6.632815 19.540969,6.696035 19.569095,6.754294 19.593552,6.807470 19.614542,6.855449 19.632269,6.898122 19.646940,6.935386 19.658763,6.967143 19.667950,6.993301 19.674717,7.013776 19.679278,7.028488 19.681853,7.037364 19.682662,7.040337 20.378113,9.727282 23.876085,9.255399 23.834686,6.480221 23.834678,6.477140 23.834809,6.467899 23.835309,6.452505 23.836408,6.430969 23.838335,6.403311 23.841321,6.369556 23.845593,6.329737 23.851379,6.283892 23.858905,6.232066 23.868397,6.174310 23.880080,6.110681 23.894175,6.041244 23.910903,5.966068 23.930484,5.885231 23.953135,5.798813 23.979070,5.706904 24.008502,5.609599 24.041643,5.506998 24.078698,5.399209 24.119873,5.286342 24.165371,5.168518 24.215390,5.045860 24.270126,4.918498 24.329772,4.786567 24.394516,4.650209 24.464545,4.509570 24.540040,4.364802 24.621179,4.216062 24.708136,4.063513 24.801080,3.907321 24.900178,3.747660 25.005590,3.584706 25.117473,3.418642 25.235979,3.249655 25.361255,3.077935 25.493444,2.903680 25.632682,2.727088 25.779102,2.548365 25.932832,2.367718 26.089290,2.190682 27.704991,2.398147 27.811646,2.608969 27.914748,2.822594 28.011265,3.032512 28.101371,3.238553 28.185246,3.440552 28.263074,3.638351 28.335041,3.831797 28.401339,4.020740 28.462162,4.205039 28.517707,4.384558 28.568175,4.559164 28.613770,4.728734 28.654698,4.893148 28.691169,5.052293 28.723394,5.206062 28.751588,5.354354 28.775967,5.497074 28.796750,5.634133 28.814157,5.765449 28.828411,5.890946 28.839735,6.010554 28.848356,6.124208 28.854499,6.231853 28.858393,6.333438 28.860266,6.428917 28.860349,6.518254 28.858872,6.601416 28.856065,6.678380 28.852159,6.749125 28.847387,6.813641 28.841980,6.871922 28.836168,6.923968 28.830184,6.969788 28.824257,7.009394 28.818618,7.042808 28.813495,7.070056 28.809117,7.091171 28.805711,7.106192 28.803503,7.115166 28.802718,7.118145 28.061524,9.792833 31.326798,11.133157 32.678534,8.709083 32.680068,8.706411 32.684802,8.698474 32.692932,8.685391 32.704652,8.667290 32.720150,8.644301 32.739613,8.616562 32.763222,8.584213 32.791155,8.547403 32.823586,8.506284 32.860685,8.461012 32.902616,8.411749 32.949541,8.358662 33.001616,8.301922 33.058993,8.241705 33.121818,8.178191 33.190233,8.111563 33.264375,8.042011 33.344375,7.969726 33.430361,7.894904 33.522453,7.817747 33.620767,7.738457 33.725414,7.657241 33.836498,7.574311 33.954118,7.489878 34.078367,7.404161 34.209333,7.317379 34.347098,7.229753 34.491736,7.141510 34.643318,7.052877 34.801906,6.964083 34.967558,6.875361 35.140324,6.786945 35.320250,6.699071 35.507373,6.611977 35.701725,6.525902 35.903331,6.441086 36.112211,6.357772 36.328376,6.276203 36.551833,6.196624 36.775848,6.121535 38.071354,7.109056 38.058308,7.344960 38.040785,7.581516 38.019412,7.811569 37.994426,8.035058 37.966064,8.251933 37.934565,8.462146 37.900168,8.665658 37.863112,8.862437 37.823637,9.052456 37.781981,9.235696 37.738385,9.412144 37.693086,9.581793 37.646324,9.744644 37.598336,9.900703 37.549359,10.049983 37.499630,10.192505 37.449383,10.328293 37.398852,10.457381 37.348269,10.579808 37.297864,10.695618 37.247868,10.804864 37.198506,10.907602 37.150004,11.003897 37.102584,11.093818 37.056466,11.177443 37.011870,11.254852 36.969009,11.326134 36.928096,11.391383 36.889341,11.450697 36.852951,11.504184 36.819127,11.551953 36.788071,11.594120 36.759979,11.630809 36.735043,11.662146 36.713452,11.688263 36.695392,11.709299 36.681043,11.725396 36.670583,11.736703 36.664184,11.743370 36.662014,11.745557 34.682777,13.691308 36.840426,16.484700 39.223100,15.061258 39.225765,15.059711 39.233833,15.055204 39.247415,15.047939 39.266615,15.038123 39.291532,15.025963 39.322257,15.011671 39.358877,14.995461 39.401473,14.977550 39.450119,14.958155 39.504883,14.937497 39.565828,14.915800 39.633010,14.893288 39.706478,14.870188 39.786276,14.846726 39.872441,14.823134 39.965004,14.799640 40.063989,14.776477 40.169414,14.753876 40.281291,14.732072 40.399623,14.711298 40.524411,14.691788 40.655646,14.673776 40.793312,14.657498 40.937391,14.643188 41.087852,14.631079 41.244664,14.621406 41.407784,14.614403 41.577166,14.610301 41.752756,14.609333 41.934494,14.611730 42.122314,14.617721 42.316142,14.627533 42.515899,14.641395 42.721499,14.659530 42.932851,14.682163 43.149855,14.709514 43.372407,14.741802 43.600396,14.779244 43.833705,14.822054 44.065252,14.869032 44.693433,16.372003 44.564183,16.569780 44.430730,16.765882 44.297194,16.954427 44.163810,17.135481 44.030811,17.309119 43.898426,17.475420 43.766881,17.634468 43.636400,17.786355 43.507204,17.931179 43.379509,18.069042 43.253529,18.200052 43.129475,18.324323 43.007552,18.441975 42.887964,18.553132 42.770908,18.657924 42.656581,18.756487 42.545171,18.848959 42.436866,18.935488 42.331846,19.016221 42.230290,19.091313 42.132369,19.160924 42.038251,19.225217 41.948100,19.284360 41.862072,19.338524 41.780321,19.387886 41.702994,19.432626 41.630235,19.472928 41.562179,19.508979 41.498959,19.540969 41.440701,19.569095 41.387525,19.593552 41.339545,19.614542 41.296872,19.632269 41.259609,19.646940 41.227852,19.658763 41.201693,19.667950 41.181218,19.674717 41.166506,19.679278 41.157630,19.681853 41.154658,19.682662 38.467713,20.378113 38.939596,23.876085 " />
</svg>
